<?xml version="1.0" standalone="no"?><svg xmlns="http://www.w3.org/2000/svg" viewBox="0 0 1440 320"><path fill="#4505cd" fill-opacity="1" d="M0,128L24,138.7C48,149,96,171,144,197.3C192,224,240,256,288,256C336,256,384,224,432,192C480,160,528,128,576,144C624,160,672,224,720,234.7C768,245,816,203,864,160C912,117,960,75,1008,53.3C1056,32,1104,32,1152,48C1200,64,1248,96,1296,133.3C1344,171,1392,213,1416,234.7L1440,256L1440,320L1416,320C1392,320,1344,320,1296,320C1248,320,1200,320,1152,320C1104,320,1056,320,1008,320C960,320,912,320,864,320C816,320,768,320,720,320C672,320,624,320,576,320C528,320,480,320,432,320C384,320,336,320,288,320C240,320,192,320,144,320C96,320,48,320,24,320L0,320Z"></path></svg>