<?xml version="1.0" standalone="no"?>
<!DOCTYPE svg PUBLIC "-//W3C//DTD SVG 20010904//EN"
 "http://www.w3.org/TR/2001/REC-SVG-20010904/DTD/svg10.dtd">
<svg version="1.0" xmlns="http://www.w3.org/2000/svg"
 width="1079.000000pt" height="1079.000000pt" viewBox="0 0 1079.000000 1079.000000"
 preserveAspectRatio="xMidYMid meet">
<metadata>
Created by potrace 1.14, written by Peter Selinger 2001-2017
</metadata>
<g transform="translate(0.000000,1079.000000) scale(0.100000,-0.100000)"
fill="#000000" stroke="none">
<path d="M0 5400 l0 -3320 5395 0 5395 0 0 3320 0 3320 -5395 0 -5395 0 0
-3320z m5852 3130 c27 -27 30 -36 25 -71 -6 -48 -29 -76 -69 -84 -42 -10 -84
11 -103 51 -45 96 72 179 147 104z m-1732 -648 c0 -20 -28 -45 -44 -39 -19 7
-22 53 -3 60 14 5 47 -10 47 -21z m2868 -38 c3 -23 -18 -37 -43 -28 -16 6 -20
35 -8 48 14 14 48 1 51 -20z m-4604 -290 c19 -7 22 -64 4 -82 -31 -31 -87 -3
-88 44 0 37 39 55 84 38z m5517 -634 c28 -15 26 -74 -3 -94 -30 -21 -47 -20
-75 6 -56 52 8 125 78 88z m604 -160 c11 -18 -6 -50 -26 -50 -22 0 -34 22 -25
45 6 17 42 20 51 5z m1741 -65 c13 -33 -133 -282 -243 -415 -120 -145 -352
-358 -538 -495 -44 -33 -105 -82 -136 -110 -31 -27 -97 -72 -147 -99 -51 -27
-90 -51 -88 -53 6 -6 312 133 446 203 184 96 376 213 434 264 28 25 85 72 126
105 41 33 84 68 94 78 40 36 56 11 25 -41 -75 -123 -257 -321 -410 -444 -85
-67 -188 -143 -228 -165 -17 -10 -31 -21 -31 -25 0 -5 -5 -8 -11 -8 -6 0 -25
-11 -43 -25 -18 -14 -36 -25 -39 -25 -4 0 -30 -15 -59 -34 -29 -18 -71 -42
-93 -53 -22 -11 -75 -39 -118 -61 -107 -56 -324 -145 -436 -178 -146 -43 -89
-40 81 5 84 22 234 61 333 86 271 70 429 121 543 177 56 28 102 55 102 59 0 5
5 9 11 9 12 0 90 59 102 77 10 15 74 36 87 28 26 -16 -150 -211 -269 -299
-131 -96 -250 -146 -679 -287 -89 -30 -158 -55 -153 -57 5 -2 102 9 214 23
112 15 219 25 238 23 l33 -3 -37 -36 c-79 -77 -278 -145 -508 -175 -164 -20
-449 -15 -579 11 -178 35 -129 44 335 59 269 9 366 15 385 26 14 7 43 19 64
25 38 11 36 12 -65 19 -133 10 -152 9 -273 -15 -112 -22 -350 -48 -437 -49
-41 0 -60 5 -71 18 -32 37 -30 40 29 52 32 6 94 20 138 30 44 11 206 47 360
80 339 73 466 103 461 108 -2 2 -48 -6 -103 -18 -152 -33 -406 -88 -532 -116
-104 -24 -116 -24 -127 -10 -10 15 -14 14 -37 -4 -80 -63 -555 -80 -670 -24
-26 12 -28 12 -23 -2 3 -9 9 -27 13 -42 5 -21 3 -24 -11 -19 -10 4 -40 7 -67
7 -43 0 -49 2 -49 21 0 23 -1 23 -107 -7 -52 -15 -52 -15 -50 -55 1 -45 -12
-59 -55 -59 -40 0 -34 -13 14 -30 51 -18 64 -49 48 -109 -12 -46 -16 -47 -65
-27 -31 13 -35 19 -35 53 0 21 -5 45 -10 53 -7 11 -10 5 -10 -23 0 -41 -21
-100 -40 -112 -14 -9 -50 23 -50 45 0 9 7 25 15 36 8 10 14 26 15 34 0 13 -2
13 -9 1 -7 -10 -21 -12 -54 -8 -43 6 -45 5 -57 -24 -14 -34 -37 -49 -75 -49
-14 0 -28 -7 -32 -15 -9 -25 1 -27 48 -6 24 11 45 17 47 12 3 -9 -25 -131 -32
-138 -3 -3 -17 -3 -31 1 -21 5 -25 12 -25 41 0 19 -3 35 -7 35 -5 0 -21 -25
-37 -55 -35 -67 -55 -68 -76 -7 l-14 42 54 55 c63 64 54 74 -13 15 -31 -28
-57 -65 -81 -115 -46 -97 -56 -97 -95 -2 -14 34 -9 43 26 52 51 13 94 35 88
45 -4 6 -16 3 -32 -10 -31 -24 -60 -26 -84 -4 -16 15 -20 14 -40 -5 -27 -25
-61 -27 -79 -6 -17 20 -20 19 -60 -15 -40 -34 -46 -36 -54 -14 -22 58 21 148
84 174 26 11 41 11 77 2 42 -12 53 -10 186 34 313 102 362 128 449 235 57 70
68 105 68 218 0 55 4 111 10 126 25 66 156 165 218 165 21 0 22 -2 12 -15 -17
-20 -14 -20 145 24 135 38 140 38 149 20 5 -11 7 -21 5 -23 -2 -3 -65 -34
-139 -69 -134 -65 -135 -65 -81 -60 l54 6 -16 -24 c-23 -32 -21 -46 2 -25 11
10 21 32 23 50 3 30 5 32 102 60 81 23 100 26 107 15 5 -8 9 -17 9 -20 0 -9
-240 -149 -256 -149 -7 0 -14 5 -16 11 -2 7 -39 -2 -100 -25 -53 -20 -101 -36
-107 -36 -6 0 -11 -4 -11 -10 0 -20 66 -9 128 20 35 17 68 27 73 24 22 -13 1
-39 -65 -79 -37 -23 -69 -46 -70 -51 0 -5 15 -10 34 -12 19 -2 40 -10 46 -18
6 -8 19 -12 28 -8 25 10 19 24 -14 31 -32 6 -46 18 -32 26 7 5 282 -37 306
-47 6 -2 -10 -13 -36 -25 -58 -26 -235 -44 -246 -24 -6 9 -25 6 -80 -14 -39
-14 -72 -28 -72 -32 0 -3 16 -16 35 -29 l35 -22 0 31 c0 29 2 31 28 24 15 -4
81 -8 147 -9 66 -1 109 0 95 2 -14 2 -29 8 -35 14 -7 7 34 9 130 5 129 -5 134
-4 65 6 l-75 11 60 8 c33 4 114 8 180 9 100 2 130 -2 179 -20 33 -11 67 -27
75 -35 14 -12 32 -11 131 9 63 13 106 24 95 24 -20 1 -122 -14 -180 -25 -26
-6 -28 -5 -16 10 16 19 11 22 -74 33 -70 9 -81 31 -25 47 229 63 616 202 801
287 187 87 167 86 -51 -1 -405 -162 -434 -172 -470 -163 -17 5 -31 12 -33 16
-1 5 34 22 78 39 243 92 447 178 583 245 84 41 151 77 149 79 -2 2 -73 -26
-158 -62 -202 -87 -232 -97 -226 -81 20 55 21 53 -50 68 l-68 14 65 39 c36 22
130 77 210 124 80 46 147 86 150 89 3 3 -10 2 -27 -2 -18 -3 -33 -3 -33 2 1 4
51 43 113 86 141 97 152 106 146 112 -5 4 -419 -218 -485 -260 -25 -16 -98
-23 -102 -9 -2 5 56 45 130 89 287 172 549 349 693 466 139 114 286 254 384
367 66 74 78 82 87 57z m-9499 -170 c368 -326 433 -376 838 -637 39 -24 114
-73 168 -107 53 -35 97 -68 97 -73 0 -18 -81 1 -135 31 -27 16 -86 48 -130 71
-44 24 -124 67 -178 98 -54 30 -100 52 -103 49 -3 -2 22 -26 55 -52 62 -49 70
-70 23 -59 -24 5 17 -22 149 -100 194 -113 339 -202 339 -208 0 -4 -27 -13
-60 -20 l-60 -13 15 -28 c7 -15 10 -27 6 -27 -9 0 -117 39 -309 111 -57 22
-106 39 -110 39 -9 -1 150 -77 269 -128 87 -38 339 -135 504 -194 82 -30 96
-53 37 -63 -31 -5 -60 2 -158 40 -65 25 -132 51 -149 57 -16 6 -43 17 -60 24
-90 38 -289 113 -292 110 -5 -4 183 -91 276 -127 42 -16 85 -34 96 -39 51 -24
497 -170 563 -185 18 -3 32 -11 32 -16 0 -17 -48 -40 -99 -46 -32 -4 -47 -9
-39 -14 28 -18 -4 -17 -111 1 -62 11 -121 20 -130 19 -22 -1 198 -48 230 -49
28 0 57 -24 41 -34 -9 -5 -217 36 -535 104 -55 12 -101 20 -103 17 -2 -2 42
-14 98 -26 57 -13 137 -31 178 -41 41 -11 192 -42 335 -70 143 -29 264 -56
269 -60 4 -5 0 -20 -10 -34 -26 -35 -59 -34 -353 9 -196 29 -270 35 -401 35
-100 0 -160 -4 -160 -10 0 -5 6 -10 13 -10 7 0 143 -7 302 -16 260 -14 321
-21 303 -39 -3 -3 -120 2 -262 11 -141 8 -262 14 -268 12 -6 -2 54 -12 134
-21 104 -13 217 -18 404 -18 246 1 319 -5 319 -24 0 -12 -90 -31 -213 -46
-123 -14 -365 -7 -503 15 -177 29 -348 91 -457 164 -34 24 -62 45 -62 49 0 8
218 -6 339 -23 58 -8 107 -14 110 -14 3 1 -124 50 -284 110 -435 165 -498 200
-651 363 -83 89 -114 132 -114 160 0 15 11 11 63 -24 34 -23 74 -50 88 -60 65
-44 347 -173 469 -214 138 -47 359 -105 572 -150 114 -24 182 -32 128 -16 -68
22 -315 118 -390 153 -381 177 -626 340 -884 588 -165 159 -313 360 -265 360
15 0 134 -89 215 -162 34 -30 78 -67 98 -83 44 -34 806 -416 806 -404 0 5 -15
16 -32 25 -85 43 -371 245 -496 351 -212 178 -412 402 -512 573 -39 66 -100
185 -100 194 0 13 28 -10 197 -159z m6769 -200 c38 -58 -36 -125 -88 -78 -20
18 -24 73 -6 91 22 22 76 15 94 -13z m-5459 -649 c159 -28 393 -102 393 -124
0 -10 -7 -13 -22 -9 -82 19 -86 19 -98 -3 -10 -18 -7 -25 25 -54 36 -33 34
-57 -2 -37 -27 16 -470 191 -482 191 -15 0 -22 16 -15 34 8 21 89 21 201 2z
m6881 -8 c-2 -18 -42 -37 -248 -120 -135 -54 -255 -101 -267 -104 -33 -9 -28
12 7 32 34 20 43 38 34 66 -4 15 -12 18 -27 14 -12 -3 -39 -9 -61 -12 -31 -6
-38 -4 -34 7 11 35 402 137 531 138 65 1 68 0 65 -21z m-6392 -56 c32 -11 105
-30 161 -43 57 -13 104 -28 107 -35 11 -28 -10 -31 -79 -13 -93 25 -113 23
-43 -4 31 -13 59 -25 61 -27 2 -3 7 -22 11 -42 6 -33 4 -37 -16 -40 -23 -4
-22 -4 5 -18 43 -21 32 -33 -25 -25 -79 10 -144 30 -241 75 -58 26 -87 45 -87
56 0 17 11 17 170 -2 44 -5 42 -4 -57 51 -79 43 -103 61 -103 77 0 18 4 20 38
14 21 -3 65 -14 98 -24z m5844 19 c0 -5 -24 -31 -54 -58 -50 -46 -107 -73
-154 -73 -11 0 -24 -5 -28 -11 -4 -8 3 -9 22 -5 16 3 65 10 109 16 44 6 88 13
98 16 12 4 17 0 17 -14 0 -15 -20 -30 -84 -61 -101 -48 -165 -68 -249 -77 -57
-7 -61 -6 -48 9 7 10 21 17 30 17 14 1 14 2 -1 14 -13 10 -16 22 -11 50 5 30
12 40 39 51 51 21 41 25 -23 9 -74 -17 -81 -17 -57 1 39 30 112 58 239 90 144
37 155 39 155 26z m-4607 -98 c45 -43 111 -105 147 -139 95 -91 117 -107 143
-100 12 3 58 41 102 83 174 168 248 233 270 233 12 0 31 -9 43 -20 20 -19 22
-31 22 -129 l0 -109 -126 -118 c-69 -66 -163 -154 -207 -196 -71 -67 -87 -78
-118 -78 -24 0 -42 7 -55 23 -11 12 -71 69 -133 127 -63 58 -147 137 -188 176
l-75 72 4 112 c3 97 6 114 22 126 39 28 64 17 149 -63z m1282 15 c146 -64 211
-177 203 -351 -5 -106 -22 -147 -88 -215 -173 -176 -453 -134 -561 84 -21 43
-24 63 -24 159 0 103 2 113 29 163 62 111 153 172 271 182 73 6 121 0 170 -22z
m1823 12 c21 -13 41 -38 54 -68 34 -81 79 -179 175 -381 29 -63 55 -128 57
-144 5 -43 -39 -87 -87 -87 -39 0 -55 15 -82 78 -31 73 -51 82 -177 82 l-109
0 -28 -64 c-41 -90 -94 -119 -148 -81 -39 27 -38 66 2 157 187 421 220 485
257 508 41 25 45 25 86 0z m-1413 -15 c25 -24 25 -26 25 -207 0 -198 6 -238
42 -268 58 -49 130 -46 179 6 23 25 24 32 30 232 3 114 9 214 13 223 17 39 90
50 127 20 l24 -19 -3 -226 c-3 -250 -9 -277 -71 -348 -49 -57 -106 -78 -206
-78 -103 0 -154 18 -212 73 -71 68 -78 98 -78 355 0 223 0 224 24 243 32 26
77 24 106 -6z m666 6 c24 -19 24 -20 27 -265 l3 -246 138 0 c125 0 141 -2 165
-21 29 -23 35 -71 12 -101 -23 -31 -66 -38 -237 -38 -177 0 -218 8 -233 45 -3
9 -6 149 -6 310 l0 294 26 20 c33 26 75 27 105 2z m-3037 -86 c62 -19 67 -19
60 0 -13 34 94 -3 144 -50 56 -51 74 -101 82 -225 8 -126 32 -181 110 -256 86
-82 187 -134 350 -179 52 -14 120 -37 151 -49 51 -21 58 -22 84 -9 73 39 185
-38 185 -127 0 -61 -12 -67 -59 -29 l-42 33 -22 -23 -22 -23 30 6 c23 4 37 0
59 -19 l30 -24 -45 -39 c-50 -46 -53 -45 -119 23 l-45 46 -15 -48 c-21 -68
-42 -67 -81 1 -17 31 -34 58 -39 61 -4 2 -13 -17 -20 -43 -7 -26 -16 -51 -20
-55 -4 -5 -21 9 -39 30 -29 36 -41 63 -55 126 -5 22 -12 27 -38 27 l-31 0 33
-31 c29 -28 32 -35 26 -72 -7 -45 -13 -57 -26 -57 -19 0 -37 31 -49 85 -10 46
-10 59 -1 65 10 6 8 15 -9 35 -11 15 -21 33 -21 40 0 9 -16 12 -52 11 -51 -1
-52 0 -74 39 -22 38 -26 40 -91 50 l-68 11 2 42 2 42 -52 14 c-29 8 -61 16
-72 18 -34 6 -29 35 9 60 20 13 36 25 36 28 0 3 -34 18 -76 34 -102 40 -113
75 -21 76 20 0 37 4 37 9 0 5 -34 29 -75 53 -47 27 -74 49 -75 61 0 23 12 22
97 -9 52 -19 80 -24 100 -19 26 8 24 9 -22 16 -27 4 -80 23 -117 42 -55 27
-67 30 -63 16 7 -23 -12 -34 -31 -18 -12 10 -13 9 -9 -4 4 -10 -1 -18 -17 -23
l-23 -8 25 -7 c39 -11 -310 -10 -371 1 -63 12 -187 70 -215 101 l-19 21 30 -5
c47 -9 126 -17 300 -27 88 -5 185 -16 215 -24 30 -8 56 -13 57 -12 2 1 -47 33
-107 70 -61 38 -110 71 -110 75 1 28 19 30 91 11 63 -18 80 -27 111 -63 28
-32 37 -37 38 -23 0 16 6 18 48 12 l47 -6 -66 28 c-93 38 -199 114 -199 143 0
7 107 -19 234 -56z m-1129 24 c66 -5 163 -18 215 -29 52 -10 171 -35 263 -54
168 -34 186 -40 173 -53 -6 -7 -285 14 -318 23 -10 3 -18 1 -18 -4 0 -5 27
-19 60 -31 58 -21 71 -33 50 -46 -19 -12 -299 52 -426 98 -79 29 -186 89 -173
98 15 9 18 9 174 -2z m7022 -3 c-6 -19 -168 -95 -262 -122 -94 -27 -306 -74
-339 -74 -15 0 -16 2 -6 15 11 14 10 14 -11 6 -13 -5 -55 -25 -94 -44 -79 -40
-152 -55 -275 -58 -148 -2 -257 2 -230 10 25 7 25 7 3 13 -13 3 -23 11 -23 17
0 36 206 68 570 90 80 5 153 12 163 16 44 18 5 19 -148 6 -147 -13 -190 -12
-173 4 5 5 78 21 388 86 194 40 445 61 437 35z m-5433 -88 c-1 -24 3 -46 10
-50 6 -5 2 -8 -11 -8 -25 0 -53 24 -53 46 0 26 20 54 38 54 15 0 18 -8 16 -42z
m-2204 -78 c96 -34 183 -64 193 -67 9 -3 17 -10 17 -15 0 -15 -47 -4 -179 43
-216 77 -234 84 -239 98 -6 17 -14 20 208 -59z m1200 -105 c0 -7 -6 -16 -12
-18 -7 -3 17 -6 54 -6 70 -1 102 -17 46 -23 -18 -2 9 -8 60 -12 94 -9 111 -19
71 -44 -23 -14 -109 -4 -389 44 -168 30 -199 42 -173 68 4 4 83 6 175 5 133 0
168 -3 168 -14z m6025 -5 c0 -17 -106 -55 -214 -77 -98 -19 -325 -21 -464 -3
-59 7 -105 15 -102 18 2 3 90 4 195 4 117 -1 190 2 190 8 0 6 -16 10 -36 10
-21 0 -33 4 -29 10 3 6 36 10 73 10 51 1 63 3 49 11 -40 23 -1 29 166 27 143
-3 172 -5 172 -18z m-4777 -126 c90 -85 102 -100 102 -129 0 -53 -26 -65 -143
-65 -93 0 -133 9 -149 34 -4 6 -8 56 -8 111 0 118 12 145 63 145 26 0 50 -17
135 -96z m684 79 c15 -14 18 -32 18 -123 0 -148 3 -145 -150 -145 -109 0 -123
2 -136 19 -31 43 -19 65 89 167 108 105 139 118 179 82z m-1322 -22 c0 -5 -16
-15 -35 -21 -19 -6 -35 -14 -35 -17 0 -4 11 -21 26 -40 l25 -33 -27 0 c-15 0
-82 10 -150 22 -85 15 -124 26 -124 35 0 7 6 13 13 14 6 0 73 11 147 24 160
28 160 28 160 16z m-374 -100 l59 -7 -60 -8 c-103 -13 -85 -16 60 -9 135 5
162 0 93 -18 -36 -9 80 -3 140 7 25 5 32 3 32 -9 0 -14 4 -15 41 -2 23 8 46
15 51 15 11 0 1 -110 -10 -121 -4 -4 -33 -9 -66 -13 l-59 -6 6 27 c3 16 9 36
13 46 6 17 3 17 -37 -4 -41 -21 -55 -22 -239 -21 -277 2 -368 10 -407 36 -42
27 -41 40 5 62 86 42 182 48 378 25z m264 -155 c0 -20 -56 -44 -120 -51 -72
-8 -103 -15 -98 -21 3 -2 85 7 183 21 98 15 186 25 195 22 9 -2 28 2 41 9 36
20 49 17 49 -11 0 -14 12 -43 26 -65 l27 -40 53 6 c35 5 54 3 54 -4 0 -5 -13
-40 -30 -76 -22 -50 -34 -66 -50 -66 -11 0 -23 -1 -27 -2 -4 -2 -6 24 -4 57
l2 60 -34 -33 c-23 -22 -39 -31 -51 -26 -11 4 -15 12 -11 23 14 34 18 81 7 81
-6 0 -14 -4 -17 -10 -3 -5 -13 -10 -22 -10 -13 0 -15 9 -11 50 3 28 3 50 1 50
-2 0 -18 -7 -36 -17 -18 -9 -52 -22 -77 -30 l-45 -13 68 5 c73 5 81 -2 44 -39
-19 -19 -43 -26 -125 -36 -170 -22 -339 10 -422 80 -25 20 -32 32 -24 40 16
17 142 40 224 41 41 0 98 4 125 9 81 12 105 11 105 -4z m4910 -6 c125 -9 230
-32 230 -50 0 -16 -81 -62 -155 -88 -77 -27 -201 -34 -329 -19 -57 7 -75 14
-99 38 -34 34 -41 36 -34 9 8 -30 -9 -34 -43 -10 -34 24 -37 16 -15 -45 8 -22
15 -41 15 -43 0 -2 -15 -2 -32 0 -27 2 -37 10 -52 41 l-18 38 26 49 c14 26 26
55 26 63 0 42 59 18 82 -33 10 -23 20 -29 53 -34 77 -10 195 -18 195 -13 0 2
-52 13 -116 23 -107 17 -141 31 -121 51 4 3 88 -6 188 -21 100 -15 184 -25
186 -22 2 2 -27 9 -64 16 -149 25 -161 30 -156 51 5 18 11 19 57 14 28 -3 107
-10 176 -15z m-5147 -172 c72 -9 87 -14 87 -28 0 -14 -22 -24 -97 -44 -257
-70 -307 -85 -294 -85 8 -1 91 17 185 40 93 22 180 38 193 34 15 -3 47 7 95
31 85 43 155 64 216 64 40 0 42 -2 36 -24 -6 -25 20 -60 40 -53 44 16 56 18
56 5 0 -19 -27 -56 -50 -68 -23 -12 -164 -40 -202 -40 -21 0 -28 -5 -28 -19 0
-22 -28 -34 -255 -112 -77 -26 -135 -48 -130 -48 22 -2 186 50 299 94 64 25
128 45 141 45 13 0 39 9 57 19 41 24 144 54 157 47 7 -5 156 21 168 29 2 1 -2
29 -8 64 -6 34 -9 65 -5 68 10 10 76 -69 76 -91 0 -12 -15 -36 -32 -54 -18
-19 -46 -48 -63 -64 -49 -50 -119 -78 -199 -78 -51 0 -74 4 -88 17 -16 15 -18
15 -18 0 0 -26 33 -37 109 -37 38 0 72 -4 75 -8 3 -5 -5 -17 -17 -27 -12 -10
-52 -45 -88 -77 -37 -32 -72 -58 -78 -58 -21 0 -11 17 24 41 30 21 47 49 30
49 -3 0 -38 -22 -78 -48 -157 -106 -306 -160 -467 -168 -80 -5 -108 -2 -175
18 -67 19 -81 27 -83 46 -2 12 -1 22 1 22 2 0 79 14 170 30 92 17 176 30 187
30 37 0 21 -17 -35 -35 -65 -23 -65 -32 1 -16 110 28 303 117 379 175 18 14
15 14 -30 1 -27 -8 -88 -26 -135 -41 -228 -71 -311 -86 -535 -91 -165 -4 -218
-2 -249 10 -22 7 -42 19 -44 25 -5 15 62 87 106 114 20 12 75 30 122 40 l85
17 -157 -6 c-115 -4 -158 -3 -158 6 0 6 17 12 38 13 20 0 -3 4 -53 8 -138 11
-315 80 -315 124 0 16 74 30 330 61 454 56 505 58 703 33z m5506 2 c64 -11
208 -29 321 -40 248 -25 360 -40 360 -49 0 -16 -69 -71 -120 -98 -55 -28 -55
-28 -250 -28 -190 1 -193 1 -97 -10 55 -5 95 -13 91 -17 -4 -5 -50 -8 -103 -9
-79 -1 -89 -3 -58 -10 61 -14 111 -44 155 -94 23 -26 42 -51 42 -55 0 -17
-164 -40 -293 -40 -136 0 -267 16 -403 50 -114 29 -301 93 -318 110 -11 11 2
80 16 80 11 0 369 -112 428 -135 59 -22 144 -45 136 -37 -4 4 -118 43 -253 87
-136 44 -248 85 -250 90 -4 14 54 35 96 35 18 0 69 -16 113 -35 44 -20 85 -34
91 -32 5 1 -18 15 -52 31 -34 15 -59 32 -56 37 9 13 82 11 108 -3 12 -6 49
-12 82 -13 33 -1 94 -4 135 -8 l75 -7 -85 14 c-240 40 -360 72 -360 97 0 14
11 12 254 -42 98 -22 181 -38 183 -36 3 3 -61 21 -359 100 -43 12 -78 26 -78
33 0 7 43 18 113 28 61 10 119 19 127 21 39 8 103 3 209 -15z m-636 -5 c69
-18 167 -78 167 -103 0 -5 -21 -20 -47 -33 -37 -18 -63 -22 -133 -22 -93 1
-153 20 -198 62 -26 26 -20 45 13 37 36 -9 55 3 55 33 0 15 3 31 7 34 11 12
76 8 136 -8z m-4055 -37 c13 -13 16 -87 6 -125 -10 -38 -41 -29 -53 15 -20 70
-10 122 24 122 6 0 16 -5 23 -12z m3564 -5 c21 -19 23 -50 6 -105 -9 -31 -16
-38 -32 -36 -18 3 -22 13 -28 62 -6 49 -5 63 9 78 20 22 22 22 45 1z m-1794
-70 c-2 -20 -9 -28 -23 -28 -14 0 -21 8 -23 28 -3 23 0 27 23 27 23 0 26 -4
23 -27z m2029 -18 c65 -4 175 -40 198 -65 25 -28 13 -46 -39 -59 -63 -16 -95
-14 -168 9 -79 25 -81 25 -38 -1 41 -25 50 -36 50 -67 0 -15 -8 -26 -26 -32
-35 -14 -98 -12 -112 2 -8 8 -12 9 -12 1 0 -31 11 -38 52 -35 39 4 44 1 92
-49 43 -46 108 -105 219 -202 67 -58 257 -250 253 -254 -3 -4 -45 -6 -93 -7
-143 -1 -177 15 -310 150 -62 62 -113 111 -113 109 0 -2 16 -32 36 -67 157
-271 157 -276 2 -218 -111 41 -242 219 -313 428 -4 10 -11 9 -36 -3 -17 -9
-37 -14 -46 -11 -17 7 -12 -13 19 -78 l19 -41 -6 48 c-3 26 -3 47 2 47 4 0 23
-39 41 -88 55 -142 91 -228 92 -212 0 8 -18 59 -40 114 -37 91 -41 116 -21
116 7 0 50 -87 140 -284 23 -49 41 -102 41 -117 0 -26 -3 -29 -32 -29 -70 0
-157 85 -233 226 -14 27 -23 40 -21 29 3 -11 12 -47 21 -80 16 -62 19 -103 9
-128 -7 -20 -77 -3 -120 28 -42 32 -88 124 -112 225 -31 132 -34 167 -17 174
9 3 15 18 15 38 0 53 -12 61 -44 33 -33 -29 -31 -28 -56 -15 -41 22 -56 179
-21 219 l19 22 57 -37 c49 -33 56 -41 51 -63 -5 -24 -4 -23 9 4 8 17 21 48 30
69 14 37 16 38 34 22 25 -23 41 -81 42 -157 1 -35 3 -56 6 -47 3 11 10 15 20
11 13 -5 15 -2 9 13 -18 45 -35 126 -29 139 3 8 15 15 28 15 13 0 26 7 29 16
5 13 9 14 21 4 12 -10 15 -10 15 0 0 10 3 10 15 0 19 -15 45 -102 45 -148 0
-26 3 -33 15 -28 10 4 22 -9 40 -42 27 -53 33 -50 10 5 -17 40 -20 72 -6 58 5
-6 20 -30 34 -55 93 -172 150 -270 153 -267 3 2 -29 67 -70 144 -42 78 -77
147 -78 154 -2 9 10 15 36 19 62 8 58 30 -6 30 -53 0 -88 15 -115 48 -16 19
-17 71 -3 107 8 22 13 25 24 16 9 -8 15 -8 18 -2 2 9 27 17 61 20 4 1 7 10 7
21 0 33 26 34 67 3 36 -27 37 -27 20 -3 -21 30 -21 34 -1 55 12 12 25 14 43 9
14 -4 49 -8 78 -9z m-2473 -20 c40 -17 52 -45 43 -100 -4 -21 0 -46 9 -65 20
-39 10 -84 -24 -110 -22 -18 -37 -20 -121 -18 l-96 3 -3 139 c-2 93 1 143 9
152 16 19 136 18 183 -1z m360 -7 c21 -35 -5 -43 -151 -48 -7 0 -13 -11 -13
-25 0 -23 3 -24 66 -27 49 -2 70 -7 77 -20 20 -31 -8 -48 -79 -48 l-64 0 0
-30 0 -30 74 0 c77 0 104 -13 92 -45 -5 -13 -24 -15 -118 -13 l-113 3 -3 139
c-2 95 1 143 9 152 19 23 208 15 223 -8z m246 7 c21 -11 30 -23 30 -39 0 -31
-24 -40 -60 -21 -37 19 -64 19 -80 0 -18 -21 -5 -33 58 -51 67 -19 92 -43 92
-91 0 -48 -16 -72 -57 -90 -55 -23 -162 4 -177 44 -15 39 30 57 68 28 25 -19
80 -19 96 0 18 21 6 32 -58 50 -31 9 -63 22 -71 28 -21 18 -32 58 -25 89 12
59 116 88 184 53z m331 -1 c17 -21 0 -49 -32 -50 -64 -3 -60 6 -58 -120 1
-121 -4 -137 -42 -127 -16 5 -19 18 -21 127 l-3 121 -43 3 c-46 3 -63 22 -42
47 19 22 222 22 241 -1z m-2332 -17 c7 -9 8 -24 1 -45 -10 -36 -4 -39 27 -17
21 15 23 14 39 -10 14 -22 22 -25 47 -19 29 6 29 5 23 -22 l-7 -29 21 25 c15
19 22 22 29 12 6 -11 9 -9 14 7 6 24 37 19 63 -10 17 -19 17 -58 -2 -149 -7
-31 -6 -34 8 -22 11 8 17 35 20 80 2 50 9 76 26 100 13 17 28 32 33 32 5 0 9
-21 9 -47 0 -25 3 -43 7 -39 4 3 12 -6 19 -21 11 -26 12 -26 13 -6 1 16 18 34
57 60 l56 37 19 -23 c11 -13 19 -29 19 -36 0 -8 12 -11 38 -9 27 3 45 13 65
36 15 18 27 38 27 45 0 7 4 13 9 13 30 0 37 -320 8 -383 -11 -26 -21 -36 -29
-31 -7 4 -5 -2 5 -14 18 -20 18 -25 -2 -168 -12 -81 -26 -155 -31 -164 -5 -10
-24 -23 -42 -29 -29 -10 -35 -9 -49 8 -16 19 -16 26 2 93 13 49 18 101 17 162
-1 50 -3 73 -5 51 -9 -109 -27 -184 -57 -250 -36 -78 -55 -95 -107 -95 l-32 0
5 93 c5 87 24 154 60 212 7 11 15 60 18 109 6 103 22 122 37 44 l10 -53 2 48
c0 27 6 57 11 67 9 17 5 22 -26 35 -20 8 -40 15 -45 15 -14 0 -23 -51 -10 -59
11 -7 0 -49 -79 -311 -13 -41 -30 -82 -39 -91 -14 -14 -108 -49 -132 -49 -20
0 -8 99 21 180 17 47 45 127 62 178 17 50 35 92 40 92 14 0 20 -49 15 -108
l-6 -57 16 58 c10 31 20 57 24 57 4 0 9 -17 11 -37 l3 -38 21 58 22 57 -36 0
c-40 0 -72 23 -72 54 0 36 -17 3 -34 -69 -26 -107 -71 -209 -130 -299 -81
-123 -105 -147 -153 -156 -23 -4 -45 -5 -48 -2 -3 3 -5 22 -5 42 0 37 24 97
109 269 22 46 41 86 41 88 0 15 -25 -19 -66 -89 -88 -154 -185 -228 -295 -228
-50 0 -51 -4 33 134 33 55 63 106 66 111 3 6 -22 -16 -54 -47 -115 -111 -217
-152 -361 -146 l-73 3 145 145 c80 80 145 149 145 153 0 4 -19 -5 -42 -20
-143 -96 -301 -138 -408 -110 -67 18 -66 45 2 76 205 94 289 131 297 131 20 0
19 -30 -2 -46 -20 -15 -20 -16 -2 -10 39 13 128 72 226 150 55 43 103 76 106
73 12 -12 -20 -76 -66 -132 -28 -33 -45 -62 -39 -64 20 -7 59 23 99 76 45 60
77 77 128 68 32 -6 111 -49 111 -61 0 -3 -39 -76 -86 -162 -48 -86 -89 -161
-91 -167 -7 -16 21 21 38 52 9 15 47 79 83 142 36 62 66 116 66 120 0 3 9 17
20 31 31 40 25 3 -15 -84 -52 -115 -42 -116 14 -1 45 92 49 98 56 72 8 -32 -1
-90 -21 -129 -13 -24 -12 -27 1 -22 25 10 18 -21 -31 -143 -25 -63 -44 -116
-42 -119 2 -2 35 71 73 163 63 149 71 162 75 132 l5 -33 33 62 c18 34 29 62
23 62 -5 0 -13 -4 -16 -10 -3 -5 -17 -10 -30 -10 -18 0 -28 10 -44 43 -12 24
-21 55 -21 69 l0 25 -47 -23 c-83 -43 -119 -30 -111 39 l5 46 -33 -36 c-35
-37 -44 -38 -109 -13 -30 12 -31 16 -4 59 22 36 46 58 113 103 46 31 59 34 75
15z m3071 3 c0 -19 49 -23 76 -5 38 25 44 15 20 -36 -31 -67 -44 -79 -84 -79
-65 0 -92 53 -54 105 17 25 42 33 42 15z m-71 -91 c6 -18 11 -41 11 -51 0 -17
5 -18 45 -12 l45 6 0 -39 c0 -21 -9 -79 -20 -129 -24 -109 -24 -103 0 -101 17
1 20 8 20 44 0 47 11 53 49 27 22 -16 23 -21 18 -93 -6 -79 -7 -80 19 37 10
50 24 18 24 -59 0 -44 4 -78 9 -75 10 7 21 -20 54 -134 35 -118 40 -145 32
-181 -7 -30 -9 -31 -44 -25 -41 6 -69 36 -106 111 -22 47 -27 73 -48 305 -2
19 -5 3 -5 -36 -1 -38 5 -121 13 -182 21 -162 12 -189 -58 -163 -28 11 -31 19
-62 199 -19 116 -20 135 -8 148 25 24 43 17 44 -18 0 -28 2 -30 9 -13 5 11 9
30 9 43 1 21 -2 22 -33 17 -33 -7 -34 -6 -50 41 -17 50 -21 174 -9 297 7 74
24 88 42 36z m1122 -68 c35 -17 93 -46 129 -66 74 -39 172 -78 244 -94 67 -16
67 -8 1 13 -56 17 -73 36 -32 36 12 0 58 -7 102 -15 44 -8 114 -20 155 -27
129 -20 135 -46 19 -83 -170 -53 -354 -21 -570 101 -123 70 -128 72 -110 50
10 -12 11 -20 3 -28 -8 -8 -28 3 -74 44 -35 30 -73 63 -85 74 -39 32 -27 37
66 31 70 -4 101 -12 152 -36z m-196 -48 c11 -10 38 -31 60 -47 22 -17 42 -32
45 -35 30 -33 250 -162 250 -146 0 2 -25 18 -55 35 -62 36 -67 41 -55 60 9 15
25 9 233 -89 70 -34 132 -61 137 -61 6 0 10 -11 10 -24 0 -28 -28 -36 -134
-36 -88 0 -184 22 -247 57 -47 25 -206 178 -268 257 -51 64 -35 83 24 29z
m-3131 -405 c18 -40 36 -85 40 -100 8 -34 22 -36 30 -5 3 13 21 58 41 101 30
66 38 77 57 74 13 -2 24 -11 26 -22 2 -10 -22 -79 -54 -152 -47 -111 -61 -134
-78 -134 -33 0 -40 10 -74 90 -17 41 -42 99 -56 129 -27 60 -22 91 15 91 15 0
28 -17 53 -72z m460 57 c13 -36 -3 -45 -85 -45 l-79 0 0 -30 0 -30 69 0 c61 0
70 -3 76 -20 10 -33 -3 -40 -76 -40 l-69 0 0 -35 0 -34 83 -3 c80 -3 82 -4 82
-28 l0 -25 -115 0 -115 0 -3 140 c-1 76 0 145 2 152 8 20 222 18 230 -2z m165
-77 l66 -87 5 87 c5 82 6 87 29 90 13 2 28 -2 32 -10 10 -15 12 -258 3 -282
-10 -26 -51 -19 -71 12 -10 15 -20 29 -23 32 -4 4 -49 59 -98 119 -10 13 -12
0 -11 -72 2 -91 -5 -111 -37 -105 -17 3 -19 16 -22 143 -1 76 0 145 3 153 3 8
16 12 32 10 20 -2 42 -24 92 -90z m416 82 c16 -25 -6 -49 -48 -52 l-42 -3 -2
-108 c-1 -126 -5 -140 -35 -135 -22 3 -23 8 -28 123 l-5 120 -42 3 c-42 3 -64
27 -48 52 4 6 56 10 125 10 69 0 121 -4 125 -10z m82 -55 c6 -140 25 -185 76
-185 46 0 62 33 67 143 5 101 5 102 30 102 25 0 25 0 28 -105 4 -156 -23 -200
-125 -200 -104 0 -133 44 -133 198 0 54 3 102 7 106 4 4 16 6 28 4 17 -3 20
-11 22 -63z m453 50 c16 -8 34 -24 40 -34 20 -39 6 -105 -26 -124 -20 -11 -17
-24 12 -62 29 -39 28 -69 -2 -73 -16 -2 -33 10 -60 45 -48 59 -54 64 -79 61
-16 -3 -21 -13 -25 -53 -5 -45 -7 -50 -30 -50 l-25 0 -3 140 c-1 76 0 145 2
152 8 19 158 18 196 -2z m308 6 c8 -5 12 -17 10 -27 -3 -16 -14 -19 -86 -22
l-82 -3 0 -29 0 -29 73 -3 c70 -3 72 -4 75 -30 l3 -28 -75 0 -76 0 0 -35 0
-35 86 0 85 0 -3 -27 -3 -28 -110 0 -110 0 -3 140 c-1 76 0 145 2 152 6 15
192 19 214 4z m226 -2 c28 -13 38 -32 29 -55 -6 -16 -7 -16 -96 3 -34 7 -63
-13 -46 -33 6 -7 35 -20 64 -29 68 -19 99 -55 91 -105 -8 -52 -46 -80 -107
-80 -90 0 -160 48 -123 84 20 20 23 20 59 -4 36 -24 78 -26 96 -4 11 14 10 18
-6 31 -11 7 -39 19 -62 24 -59 15 -83 41 -83 90 0 59 36 89 106 89 29 0 64 -5
78 -11z"/>
<path d="M8698 5033 c7 -3 16 -2 19 1 4 3 -2 6 -13 5 -11 0 -14 -3 -6 -6z"/>
<path d="M1928 5063 c7 -3 16 -2 19 1 4 3 -2 6 -13 5 -11 0 -14 -3 -6 -6z"/>
<path d="M1988 5053 c7 -3 16 -2 19 1 4 3 -2 6 -13 5 -11 0 -14 -3 -6 -6z"/>
<path d="M2038 5043 c6 -2 18 -2 25 0 6 3 1 5 -13 5 -14 0 -19 -2 -12 -5z"/>
<path d="M4837 5385 c-40 -28 -87 -110 -87 -152 0 -39 31 -117 58 -145 38 -41
114 -64 163 -49 56 17 105 64 123 118 21 63 20 89 -8 149 -32 69 -74 97 -151
102 -52 3 -65 0 -98 -23z"/>
<path d="M6815 5263 c-11 -26 -21 -51 -23 -55 -2 -4 19 -8 47 -8 28 0 51 4 51
10 0 13 -43 100 -49 100 -4 0 -15 -21 -26 -47z"/>
<path d="M3907 4581 c-4 -15 2 -20 27 -24 17 -2 32 -4 32 -3 1 0 -11 11 -26
23 -26 22 -28 22 -33 4z"/>
<path d="M4030 4570 c0 -5 -12 -13 -26 -16 -26 -7 -26 -7 -5 -18 11 -6 39 -10
61 -8 l41 4 -28 24 c-30 26 -43 30 -43 14z"/>
<path d="M2863 4983 c9 -2 25 -2 35 0 9 3 1 5 -18 5 -19 0 -27 -2 -17 -5z"/>
<path d="M2808 4973 c7 -3 16 -2 19 1 4 3 -2 6 -13 5 -11 0 -14 -3 -6 -6z"/>
<path d="M2988 4783 c12 -2 32 -2 45 0 12 2 2 4 -23 4 -25 0 -35 -2 -22 -4z"/>
<path d="M2918 4773 c6 -2 18 -2 25 0 6 3 1 5 -13 5 -14 0 -19 -2 -12 -5z"/>
<path d="M2769 4574 c-140 -36 -290 -60 -454 -73 -90 -7 -98 -8 -45 -10 138
-3 383 21 475 46 114 31 119 32 123 11 2 -12 -15 -27 -65 -53 -37 -19 -57 -33
-43 -29 14 4 30 10 35 14 18 14 129 47 179 55 l48 7 -28 14 c-16 8 -36 23 -46
34 -20 25 -25 24 -179 -16z"/>
<path d="M8363 4503 c9 -2 25 -2 35 0 9 3 1 5 -18 5 -19 0 -27 -2 -17 -5z"/>
<path d="M8368 4463 c6 -2 18 -2 25 0 6 3 1 5 -13 5 -14 0 -19 -2 -12 -5z"/>
<path d="M6931 4201 c-6 -11 -29 -26 -51 -32 -22 -7 -40 -13 -40 -14 0 -4 22
-70 28 -85 3 -8 8 5 12 30 l5 45 21 -80 21 -80 -5 81 c-4 63 -1 89 12 114 17
36 15 55 -3 21z"/>
<path d="M4840 4476 c0 -33 2 -36 31 -36 37 0 69 16 69 35 0 19 -16 27 -61 32
-39 5 -39 5 -39 -31z"/>
<path d="M4834 4353 c1 -25 5 -28 40 -31 56 -5 86 5 86 27 0 24 -19 31 -79 31
-46 0 -48 -1 -47 -27z"/>
<path d="M4111 4328 c-1 -15 -7 -49 -13 -75 -10 -36 -10 -47 -1 -50 7 -3 15
-20 19 -39 4 -23 12 -34 23 -34 15 0 16 7 8 63 -14 90 -35 169 -36 135z"/>
<path d="M4175 4068 c12 -55 22 -65 27 -26 3 27 -1 39 -15 48 -17 10 -18 9
-12 -22z"/>
<path d="M3550 4060 c-6 -11 -8 -20 -6 -20 3 0 10 9 16 20 6 11 8 20 6 20 -3
0 -10 -9 -16 -20z"/>
<path d="M4062 4040 c0 -14 2 -19 5 -12 2 6 2 18 0 25 -3 6 -5 1 -5 -13z"/>
<path d="M4001 3844 c0 -11 3 -14 6 -6 3 7 2 16 -1 19 -3 4 -6 -2 -5 -13z"/>
<path d="M6783 3900 c0 -41 2 -58 4 -37 2 20 2 54 0 75 -2 20 -4 3 -4 -38z"/>
<path d="M5804 3926 c-3 -8 -4 -25 -2 -38 6 -44 118 -33 118 12 0 11 -9 24
-19 30 -29 15 -91 13 -97 -4z"/>
</g>
</svg>
